<svg width="23" height="23" viewBox="0 0 23 23" fill="none" xmlns="http://www.w3.org/2000/svg">
<path d="M6.42351 21.2577C6.24801 21.0821 6.14941 20.8441 6.14941 20.5958C6.14941 20.3476 6.24801 20.1095 6.42351 19.934L15.1233 11.2341L6.42351 2.53429C6.25298 2.35773 6.15862 2.12125 6.16075 1.87579C6.16289 1.63033 6.26134 1.39553 6.43492 1.22195C6.60849 1.04838 6.84329 0.949922 7.08875 0.947789C7.33421 0.945656 7.57069 1.04002 7.74726 1.21055L17.109 10.5723C17.2845 10.7478 17.3831 10.9859 17.3831 11.2341C17.3831 11.4824 17.2845 11.7204 17.109 11.896L7.74726 21.2577C7.5717 21.4332 7.33362 21.5318 7.08538 21.5318C6.83715 21.5318 6.59907 21.4332 6.42351 21.2577Z" fill="#282943"/>
</svg>
