<svg width="23" height="23" viewBox="0 0 23 23" fill="none" xmlns="http://www.w3.org/2000/svg">
<path d="M16.5765 21.2577C16.752 21.0821 16.8506 20.8441 16.8506 20.5958C16.8506 20.3476 16.752 20.1095 16.5765 19.934L7.87666 11.2341L16.5765 2.53429C16.747 2.35773 16.8414 2.12125 16.8392 1.87579C16.8371 1.63033 16.7387 1.39553 16.5651 1.22195C16.3915 1.04838 16.1567 0.949922 15.9112 0.947789C15.6658 0.945656 15.4293 1.04002 15.2527 1.21055L5.89104 10.5723C5.71554 10.7478 5.61694 10.9859 5.61694 11.2341C5.61694 11.4824 5.71554 11.7204 5.89104 11.896L15.2527 21.2577C15.4283 21.4332 15.6664 21.5318 15.9146 21.5318C16.1629 21.5318 16.4009 21.4332 16.5765 21.2577Z" fill="#282943"/>
</svg>
